<svg xmlns="http://www.w3.org/2000/svg" xmlns:xlink="http://www.w3.org/1999/xlink" width="40" zoomAndPan="magnify" viewBox="0 0 30 30.000001" height="40" preserveAspectRatio="xMidYMid meet" version="1.0"><defs><g/><clipPath id="2d3f2d8a4f"><path d="M 0.269531 1 L 5 1 L 5 6 L 0.269531 6 Z M 0.269531 1 " clip-rule="nonzero"/></clipPath><clipPath id="4d473287a9"><path d="M 4 0.199219 L 8 0.199219 L 8 6 L 4 6 Z M 4 0.199219 " clip-rule="nonzero"/></clipPath><clipPath id="4908da8eab"><path d="M 8 0.199219 L 10 0.199219 L 10 6 L 8 6 Z M 8 0.199219 " clip-rule="nonzero"/></clipPath><clipPath id="2192738dfe"><rect x="0" width="21" y="0" height="8"/></clipPath><clipPath id="12ce278a75"><path d="M 8 0.398438 L 11 0.398438 L 11 6 L 8 6 Z M 8 0.398438 " clip-rule="nonzero"/></clipPath><clipPath id="62e8a6ac07"><path d="M 10 0.398438 L 13 0.398438 L 13 6 L 10 6 Z M 10 0.398438 " clip-rule="nonzero"/></clipPath><clipPath id="c06fb29e3a"><rect x="0" width="14" y="0" height="8"/></clipPath><clipPath id="6b77770cd8"><path d="M 10 8 L 12.960938 8 L 12.960938 10 L 10 10 Z M 10 8 " clip-rule="nonzero"/></clipPath><clipPath id="177c41a9c5"><path d="M 10 9 L 12.960938 9 L 12.960938 12 L 10 12 Z M 10 9 " clip-rule="nonzero"/></clipPath><clipPath id="f77e643f96"><path d="M 10 11 L 12.960938 11 L 12.960938 13 L 10 13 Z M 10 11 " clip-rule="nonzero"/></clipPath><clipPath id="cecafe7b35"><rect x="0" width="13" y="0" height="21"/></clipPath></defs><g transform="matrix(1, 0, 0, 1, 3, 7)"><g clip-path="url(#2192738dfe)"><g clip-path="url(#2d3f2d8a4f)"><g fill="#000000" fill-opacity="1"><g transform="translate(0.387096, 5.524143)"><g><path d="M 2.296875 0.0625 C 1.898438 0.0507812 1.539062 -0.0390625 1.21875 -0.21875 C 0.894531 -0.40625 0.632812 -0.660156 0.4375 -0.984375 C 0.25 -1.316406 0.15625 -1.710938 0.15625 -2.171875 C 0.15625 -2.515625 0.207031 -2.8125 0.3125 -3.0625 C 0.425781 -3.320312 0.570312 -3.53125 0.75 -3.6875 C 0.925781 -3.851562 1.109375 -3.984375 1.296875 -4.078125 C 1.484375 -4.171875 1.660156 -4.238281 1.828125 -4.28125 C 1.992188 -4.320312 2.117188 -4.34375 2.203125 -4.34375 C 2.460938 -4.34375 2.695312 -4.304688 2.90625 -4.234375 C 3.125 -4.160156 3.304688 -4.0625 3.453125 -3.9375 C 3.597656 -3.820312 3.707031 -3.703125 3.78125 -3.578125 L 2.75 -2.5625 L 2.71875 -2.5625 C 2.625 -2.875 2.523438 -3.125 2.421875 -3.3125 C 2.316406 -3.507812 2.207031 -3.660156 2.09375 -3.765625 C 1.988281 -3.867188 1.882812 -3.9375 1.78125 -3.96875 C 1.6875 -4.007812 1.609375 -4.03125 1.546875 -4.03125 C 1.421875 -4.03125 1.304688 -3.972656 1.203125 -3.859375 C 1.109375 -3.742188 1.0625 -3.554688 1.0625 -3.296875 C 1.0625 -3.109375 1.082031 -2.90625 1.125 -2.6875 C 1.175781 -2.476562 1.253906 -2.265625 1.359375 -2.046875 C 1.460938 -1.828125 1.59375 -1.628906 1.75 -1.453125 C 1.914062 -1.273438 2.113281 -1.128906 2.34375 -1.015625 C 2.570312 -0.910156 2.835938 -0.859375 3.140625 -0.859375 C 3.242188 -0.859375 3.34375 -0.867188 3.4375 -0.890625 C 3.53125 -0.910156 3.628906 -0.9375 3.734375 -0.96875 L 3.75 -0.9375 C 3.65625 -0.851562 3.53125 -0.753906 3.375 -0.640625 C 3.226562 -0.523438 3.078125 -0.410156 2.921875 -0.296875 C 2.773438 -0.191406 2.644531 -0.101562 2.53125 -0.03125 C 2.414062 0.03125 2.335938 0.0625 2.296875 0.0625 Z M 2.296875 0.0625 "/></g></g></g></g><g clip-path="url(#4d473287a9)"><g fill="#000000" fill-opacity="1"><g transform="translate(4.230608, 5.524143)"><g><path d="M 3.359375 -2.34375 L 3.34375 -0.28125 L 3.640625 -0.03125 L 3.640625 0 L 1.953125 0 L 1.953125 -0.03125 L 2.234375 -0.28125 L 2.234375 -2.265625 C 2.234375 -2.421875 2.203125 -2.523438 2.140625 -2.578125 C 2.078125 -2.640625 1.992188 -2.671875 1.890625 -2.671875 C 1.804688 -2.671875 1.734375 -2.644531 1.671875 -2.59375 C 1.609375 -2.550781 1.554688 -2.5 1.515625 -2.4375 L 1.515625 -0.28125 L 1.8125 -0.03125 L 1.8125 0 L 0.109375 0 L 0.109375 -0.03125 L 0.40625 -0.28125 L 0.40625 -4.265625 L 0 -4.40625 L 0 -4.4375 L 1.46875 -4.890625 L 1.515625 -4.890625 L 1.515625 -2.625 C 1.710938 -2.882812 1.882812 -3.082031 2.03125 -3.21875 C 2.175781 -3.363281 2.296875 -3.4375 2.390625 -3.4375 C 2.628906 -3.4375 2.816406 -3.382812 2.953125 -3.28125 C 3.097656 -3.1875 3.203125 -3.054688 3.265625 -2.890625 C 3.328125 -2.722656 3.359375 -2.539062 3.359375 -2.34375 Z M 3.359375 -2.34375 "/></g></g></g></g><g clip-path="url(#4908da8eab)"><g fill="#000000" fill-opacity="1"><g transform="translate(7.910569, 5.524143)"><g><path d="M 0.96875 -3.734375 C 0.800781 -3.734375 0.664062 -3.78125 0.5625 -3.875 C 0.457031 -3.96875 0.40625 -4.09375 0.40625 -4.25 C 0.40625 -4.40625 0.457031 -4.523438 0.5625 -4.609375 C 0.664062 -4.703125 0.800781 -4.75 0.96875 -4.75 C 1.125 -4.75 1.25 -4.703125 1.34375 -4.609375 C 1.445312 -4.523438 1.5 -4.40625 1.5 -4.25 C 1.5 -4.09375 1.445312 -3.96875 1.34375 -3.875 C 1.25 -3.78125 1.125 -3.734375 0.96875 -3.734375 Z M 0.421875 -0.28125 L 0.421875 -3.046875 L 0.125 -3.3125 L 0.125 -3.34375 L 1.53125 -3.34375 L 1.53125 -0.28125 L 1.8125 -0.03125 L 1.8125 0 L 0.125 0 L 0.125 -0.03125 Z M 0.421875 -0.28125 "/></g></g></g></g><g fill="#000000" fill-opacity="1"><g transform="translate(9.816604, 5.524143)"><g><path d="M 2.984375 -0.71875 L 3.453125 -0.953125 L 3.46875 -0.921875 C 3.34375 -0.742188 3.222656 -0.578125 3.109375 -0.421875 C 3.003906 -0.273438 2.894531 -0.15625 2.78125 -0.0625 C 2.675781 0.03125 2.5625 0.078125 2.4375 0.078125 C 2.34375 0.078125 2.253906 0.0507812 2.171875 0 C 2.085938 -0.0507812 2.023438 -0.140625 1.984375 -0.265625 C 1.953125 -0.390625 1.941406 -0.570312 1.953125 -0.8125 L 1.921875 -0.8125 C 1.859375 -0.65625 1.773438 -0.507812 1.671875 -0.375 C 1.578125 -0.238281 1.460938 -0.128906 1.328125 -0.046875 C 1.203125 0.0351562 1.046875 0.078125 0.859375 0.078125 C 0.640625 0.078125 0.460938 0.0195312 0.328125 -0.09375 C 0.191406 -0.21875 0.125 -0.382812 0.125 -0.59375 C 0.125 -0.789062 0.175781 -0.957031 0.28125 -1.09375 C 0.394531 -1.238281 0.535156 -1.363281 0.703125 -1.46875 C 0.878906 -1.570312 1.054688 -1.664062 1.234375 -1.75 L 1.921875 -2.046875 C 1.921875 -2.367188 1.875 -2.625 1.78125 -2.8125 C 1.695312 -3 1.578125 -3.085938 1.421875 -3.078125 C 1.296875 -3.066406 1.207031 -2.984375 1.15625 -2.828125 C 1.101562 -2.679688 1.132812 -2.425781 1.25 -2.0625 L 0.09375 -1.734375 L 0.0625 -1.765625 C 0.21875 -2.085938 0.378906 -2.351562 0.546875 -2.5625 C 0.722656 -2.769531 0.898438 -2.929688 1.078125 -3.046875 C 1.253906 -3.171875 1.414062 -3.257812 1.5625 -3.3125 C 1.707031 -3.375 1.828125 -3.410156 1.921875 -3.421875 C 2.023438 -3.429688 2.085938 -3.4375 2.109375 -3.4375 C 2.359375 -3.4375 2.550781 -3.398438 2.6875 -3.328125 C 2.820312 -3.253906 2.914062 -3.144531 2.96875 -3 C 3.019531 -2.863281 3.046875 -2.703125 3.046875 -2.515625 C 3.054688 -2.335938 3.054688 -2.140625 3.046875 -1.921875 L 2.984375 -0.8125 Z M 1.46875 -0.6875 C 1.53125 -0.6875 1.601562 -0.710938 1.6875 -0.765625 C 1.769531 -0.816406 1.84375 -0.898438 1.90625 -1.015625 L 1.921875 -1.921875 C 1.660156 -1.734375 1.472656 -1.570312 1.359375 -1.4375 C 1.253906 -1.300781 1.203125 -1.164062 1.203125 -1.03125 C 1.203125 -0.894531 1.234375 -0.800781 1.296875 -0.75 C 1.359375 -0.707031 1.414062 -0.6875 1.46875 -0.6875 Z M 1.46875 -0.6875 "/></g></g></g><g fill="#000000" fill-opacity="1"><g transform="translate(13.213497, 5.524143)"><g><path d="M 3.03125 -3.09375 L 3.0625 -3.078125 C 3.039062 -3.023438 3.003906 -2.953125 2.953125 -2.859375 C 2.910156 -2.765625 2.859375 -2.664062 2.796875 -2.5625 C 2.734375 -2.46875 2.660156 -2.382812 2.578125 -2.3125 C 2.503906 -2.238281 2.421875 -2.203125 2.328125 -2.203125 C 2.242188 -2.203125 2.171875 -2.234375 2.109375 -2.296875 C 2.046875 -2.359375 1.984375 -2.414062 1.921875 -2.46875 C 1.867188 -2.53125 1.804688 -2.5625 1.734375 -2.5625 C 1.722656 -2.5625 1.703125 -2.546875 1.671875 -2.515625 C 1.640625 -2.492188 1.613281 -2.457031 1.59375 -2.40625 L 1.59375 -0.28125 L 1.875 -0.03125 L 1.875 0 L 0.1875 0 L 0.1875 -0.03125 L 0.484375 -0.28125 L 0.484375 -2.640625 L 0 -2.40625 L -0.015625 -2.4375 C 0.109375 -2.613281 0.222656 -2.773438 0.328125 -2.921875 C 0.441406 -3.078125 0.550781 -3.203125 0.65625 -3.296875 C 0.769531 -3.390625 0.890625 -3.4375 1.015625 -3.4375 C 1.117188 -3.4375 1.207031 -3.410156 1.28125 -3.359375 C 1.363281 -3.304688 1.425781 -3.21875 1.46875 -3.09375 C 1.507812 -2.96875 1.519531 -2.789062 1.5 -2.5625 L 1.546875 -2.5625 C 1.609375 -2.632812 1.671875 -2.71875 1.734375 -2.8125 C 1.804688 -2.914062 1.875 -3.015625 1.9375 -3.109375 C 2.007812 -3.203125 2.070312 -3.28125 2.125 -3.34375 C 2.1875 -3.40625 2.234375 -3.4375 2.265625 -3.4375 C 2.304688 -3.4375 2.347656 -3.414062 2.390625 -3.375 C 2.441406 -3.332031 2.492188 -3.285156 2.546875 -3.234375 C 2.609375 -3.179688 2.664062 -3.132812 2.71875 -3.09375 C 2.78125 -3.050781 2.835938 -3.03125 2.890625 -3.03125 C 2.953125 -3.03125 3 -3.050781 3.03125 -3.09375 Z M 3.03125 -3.09375 "/></g></g></g><g fill="#000000" fill-opacity="1"><g transform="translate(15.842948, 5.524143)"><g><path d="M 2.984375 -0.71875 L 3.453125 -0.953125 L 3.46875 -0.921875 C 3.34375 -0.742188 3.222656 -0.578125 3.109375 -0.421875 C 3.003906 -0.273438 2.894531 -0.15625 2.78125 -0.0625 C 2.675781 0.03125 2.5625 0.078125 2.4375 0.078125 C 2.34375 0.078125 2.253906 0.0507812 2.171875 0 C 2.085938 -0.0507812 2.023438 -0.140625 1.984375 -0.265625 C 1.953125 -0.390625 1.941406 -0.570312 1.953125 -0.8125 L 1.921875 -0.8125 C 1.859375 -0.65625 1.773438 -0.507812 1.671875 -0.375 C 1.578125 -0.238281 1.460938 -0.128906 1.328125 -0.046875 C 1.203125 0.0351562 1.046875 0.078125 0.859375 0.078125 C 0.640625 0.078125 0.460938 0.0195312 0.328125 -0.09375 C 0.191406 -0.21875 0.125 -0.382812 0.125 -0.59375 C 0.125 -0.789062 0.175781 -0.957031 0.28125 -1.09375 C 0.394531 -1.238281 0.535156 -1.363281 0.703125 -1.46875 C 0.878906 -1.570312 1.054688 -1.664062 1.234375 -1.75 L 1.921875 -2.046875 C 1.921875 -2.367188 1.875 -2.625 1.78125 -2.8125 C 1.695312 -3 1.578125 -3.085938 1.421875 -3.078125 C 1.296875 -3.066406 1.207031 -2.984375 1.15625 -2.828125 C 1.101562 -2.679688 1.132812 -2.425781 1.25 -2.0625 L 0.09375 -1.734375 L 0.0625 -1.765625 C 0.21875 -2.085938 0.378906 -2.351562 0.546875 -2.5625 C 0.722656 -2.769531 0.898438 -2.929688 1.078125 -3.046875 C 1.253906 -3.171875 1.414062 -3.257812 1.5625 -3.3125 C 1.707031 -3.375 1.828125 -3.410156 1.921875 -3.421875 C 2.023438 -3.429688 2.085938 -3.4375 2.109375 -3.4375 C 2.359375 -3.4375 2.550781 -3.398438 2.6875 -3.328125 C 2.820312 -3.253906 2.914062 -3.144531 2.96875 -3 C 3.019531 -2.863281 3.046875 -2.703125 3.046875 -2.515625 C 3.054688 -2.335938 3.054688 -2.140625 3.046875 -1.921875 L 2.984375 -0.8125 Z M 1.46875 -0.6875 C 1.53125 -0.6875 1.601562 -0.710938 1.6875 -0.765625 C 1.769531 -0.816406 1.84375 -0.898438 1.90625 -1.015625 L 1.921875 -1.921875 C 1.660156 -1.734375 1.472656 -1.570312 1.359375 -1.4375 C 1.253906 -1.300781 1.203125 -1.164062 1.203125 -1.03125 C 1.203125 -0.894531 1.234375 -0.800781 1.296875 -0.75 C 1.359375 -0.707031 1.414062 -0.6875 1.46875 -0.6875 Z M 1.46875 -0.6875 "/></g></g></g></g></g><g transform="matrix(1, 0, 0, 1, 10, 14)"><g clip-path="url(#c06fb29e3a)"><g fill="#000000" fill-opacity="1"><g transform="translate(0.878891, 5.653362)"><g><path d="M 2.453125 -2.203125 L 2.453125 -2.171875 C 2.867188 -2.210938 3.195312 -2.191406 3.4375 -2.109375 C 3.675781 -2.035156 3.84375 -1.921875 3.9375 -1.765625 C 4.039062 -1.617188 4.09375 -1.453125 4.09375 -1.265625 C 4.09375 -1.066406 4.019531 -0.867188 3.875 -0.671875 C 3.726562 -0.484375 3.5 -0.320312 3.1875 -0.1875 C 2.882812 -0.0625 2.503906 0 2.046875 0 L 0.203125 0 L 0.203125 -0.03125 L 0.546875 -0.359375 L 0.546875 -3.890625 L 0.203125 -4.21875 L 0.203125 -4.25 L 2.15625 -4.25 C 2.582031 -4.25 2.914062 -4.207031 3.15625 -4.125 C 3.40625 -4.050781 3.585938 -3.945312 3.703125 -3.8125 C 3.816406 -3.675781 3.875 -3.515625 3.875 -3.328125 C 3.875 -3.035156 3.75 -2.789062 3.5 -2.59375 C 3.257812 -2.40625 2.910156 -2.273438 2.453125 -2.203125 Z M 1.953125 -4.140625 L 1.75 -4.140625 L 1.75 -2.234375 L 1.953125 -2.234375 C 2.234375 -2.242188 2.414062 -2.328125 2.5 -2.484375 C 2.59375 -2.640625 2.640625 -2.875 2.640625 -3.1875 C 2.640625 -3.351562 2.625 -3.503906 2.59375 -3.640625 C 2.570312 -3.785156 2.507812 -3.90625 2.40625 -4 C 2.3125 -4.09375 2.160156 -4.140625 1.953125 -4.140625 Z M 1.953125 -0.109375 C 2.234375 -0.117188 2.441406 -0.203125 2.578125 -0.359375 C 2.710938 -0.523438 2.78125 -0.785156 2.78125 -1.140625 C 2.78125 -1.515625 2.707031 -1.769531 2.5625 -1.90625 C 2.425781 -2.050781 2.226562 -2.125 1.96875 -2.125 L 1.75 -2.125 L 1.75 -0.109375 C 1.78125 -0.109375 1.804688 -0.101562 1.828125 -0.09375 C 1.847656 -0.09375 1.890625 -0.0976562 1.953125 -0.109375 Z M 1.953125 -0.109375 "/></g></g></g><g fill="#000000" fill-opacity="1"><g transform="translate(5.106128, 5.653362)"><g><path d="M 1.0625 -3.75 C 0.9375 -3.75 0.828125 -3.785156 0.734375 -3.859375 C 0.648438 -3.941406 0.609375 -4.046875 0.609375 -4.171875 C 0.609375 -4.285156 0.648438 -4.378906 0.734375 -4.453125 C 0.828125 -4.535156 0.9375 -4.578125 1.0625 -4.578125 C 1.1875 -4.578125 1.289062 -4.535156 1.375 -4.453125 C 1.457031 -4.378906 1.5 -4.285156 1.5 -4.171875 C 1.5 -4.046875 1.457031 -3.941406 1.375 -3.859375 C 1.289062 -3.785156 1.1875 -3.75 1.0625 -3.75 Z M 2.296875 -3.75 C 2.171875 -3.75 2.066406 -3.785156 1.984375 -3.859375 C 1.898438 -3.941406 1.859375 -4.046875 1.859375 -4.171875 C 1.859375 -4.285156 1.898438 -4.378906 1.984375 -4.453125 C 2.066406 -4.535156 2.171875 -4.578125 2.296875 -4.578125 C 2.429688 -4.578125 2.535156 -4.535156 2.609375 -4.453125 C 2.691406 -4.378906 2.734375 -4.285156 2.734375 -4.171875 C 2.734375 -4.046875 2.691406 -3.941406 2.609375 -3.859375 C 2.535156 -3.785156 2.429688 -3.75 2.296875 -3.75 Z M 1.703125 0.09375 C 1.367188 0.09375 1.078125 0.015625 0.828125 -0.140625 C 0.585938 -0.296875 0.398438 -0.5 0.265625 -0.75 C 0.140625 -1.007812 0.078125 -1.296875 0.078125 -1.609375 C 0.078125 -1.910156 0.125 -2.171875 0.21875 -2.390625 C 0.3125 -2.609375 0.429688 -2.785156 0.578125 -2.921875 C 0.722656 -3.054688 0.875 -3.160156 1.03125 -3.234375 C 1.1875 -3.304688 1.320312 -3.359375 1.4375 -3.390625 C 1.5625 -3.421875 1.644531 -3.4375 1.6875 -3.4375 C 2.03125 -3.4375 2.320312 -3.359375 2.5625 -3.203125 C 2.800781 -3.046875 2.988281 -2.835938 3.125 -2.578125 C 3.257812 -2.316406 3.328125 -2.03125 3.328125 -1.71875 C 3.328125 -1.414062 3.28125 -1.15625 3.1875 -0.9375 C 3.09375 -0.726562 2.972656 -0.554688 2.828125 -0.421875 C 2.679688 -0.285156 2.53125 -0.179688 2.375 -0.109375 C 2.21875 -0.0351562 2.078125 0.015625 1.953125 0.046875 C 1.835938 0.078125 1.753906 0.09375 1.703125 0.09375 Z M 2.265625 -0.21875 C 2.367188 -0.257812 2.421875 -0.398438 2.421875 -0.640625 C 2.421875 -0.878906 2.332031 -1.257812 2.15625 -1.78125 C 1.96875 -2.289062 1.789062 -2.65625 1.625 -2.875 C 1.46875 -3.09375 1.3125 -3.179688 1.15625 -3.140625 C 1.039062 -3.097656 0.976562 -2.953125 0.96875 -2.703125 C 0.96875 -2.460938 1.054688 -2.085938 1.234375 -1.578125 C 1.410156 -1.066406 1.582031 -0.695312 1.75 -0.46875 C 1.925781 -0.25 2.097656 -0.164062 2.265625 -0.21875 Z M 2.265625 -0.21875 "/></g></g></g><g clip-path="url(#12ce278a75)"><g fill="#000000" fill-opacity="1"><g transform="translate(8.452693, 5.653362)"><g><path d="M 1.515625 -0.28125 L 1.8125 -0.03125 L 1.8125 0 L 0.109375 0 L 0.109375 -0.03125 L 0.40625 -0.28125 L 0.40625 -4.265625 L 0 -4.40625 L 0 -4.4375 L 1.46875 -4.890625 L 1.515625 -4.890625 Z M 1.515625 -0.28125 "/></g></g></g></g><g clip-path="url(#62e8a6ac07)"><g fill="#000000" fill-opacity="1"><g transform="translate(10.371301, 5.653362)"><g><path d="M 1.515625 -0.28125 L 1.8125 -0.03125 L 1.8125 0 L 0.109375 0 L 0.109375 -0.03125 L 0.40625 -0.28125 L 0.40625 -4.265625 L 0 -4.40625 L 0 -4.4375 L 1.46875 -4.890625 L 1.515625 -4.890625 Z M 1.515625 -0.28125 "/></g></g></g></g></g></g><g transform="matrix(1, 0, 0, 1, 14, 4)"><g clip-path="url(#cecafe7b35)"><g fill="#000000" fill-opacity="1"><g transform="translate(1.234768, 2.929071)"><g><path d="M 0.796875 -0.0625 C 0.703125 -0.0507812 0.609375 -0.0546875 0.515625 -0.078125 C 0.421875 -0.109375 0.34375 -0.148438 0.28125 -0.203125 C 0.21875 -0.265625 0.160156 -0.335938 0.109375 -0.421875 C 0.0664062 -0.503906 0.0390625 -0.59375 0.03125 -0.6875 C 0.0195312 -0.789062 0.0234375 -0.890625 0.046875 -0.984375 C 0.078125 -1.078125 0.117188 -1.15625 0.171875 -1.21875 C 0.222656 -1.28125 0.289062 -1.332031 0.375 -1.375 C 0.457031 -1.414062 0.546875 -1.441406 0.640625 -1.453125 C 0.742188 -1.460938 0.84375 -1.453125 0.9375 -1.421875 C 1.03125 -1.398438 1.109375 -1.359375 1.171875 -1.296875 C 1.242188 -1.234375 1.300781 -1.15625 1.34375 -1.0625 L 1.15625 -1.03125 C 1.113281 -1.132812 1.046875 -1.203125 0.953125 -1.234375 C 0.867188 -1.273438 0.769531 -1.289062 0.65625 -1.28125 C 0.5625 -1.269531 0.476562 -1.238281 0.40625 -1.1875 C 0.332031 -1.144531 0.273438 -1.078125 0.234375 -0.984375 C 0.203125 -0.898438 0.191406 -0.804688 0.203125 -0.703125 C 0.210938 -0.597656 0.242188 -0.507812 0.296875 -0.4375 C 0.359375 -0.363281 0.429688 -0.304688 0.515625 -0.265625 C 0.597656 -0.234375 0.6875 -0.222656 0.78125 -0.234375 C 0.894531 -0.242188 0.992188 -0.285156 1.078125 -0.359375 C 1.160156 -0.429688 1.207031 -0.523438 1.21875 -0.640625 L 1.390625 -0.65625 C 1.390625 -0.550781 1.359375 -0.453125 1.296875 -0.359375 C 1.234375 -0.273438 1.160156 -0.207031 1.078125 -0.15625 C 1.003906 -0.101562 0.910156 -0.0703125 0.796875 -0.0625 Z M 0.796875 -0.0625 "/></g></g></g><g fill="#000000" fill-opacity="1"><g transform="translate(2.691118, 2.747936)"><g><path d="M 0.8125 0.09375 C 0.675781 0.0820312 0.554688 0.0390625 0.453125 -0.03125 C 0.359375 -0.101562 0.28125 -0.191406 0.21875 -0.296875 C 0.164062 -0.398438 0.144531 -0.519531 0.15625 -0.65625 C 0.164062 -0.800781 0.207031 -0.925781 0.28125 -1.03125 C 0.351562 -1.132812 0.441406 -1.207031 0.546875 -1.25 C 0.660156 -1.300781 0.785156 -1.320312 0.921875 -1.3125 C 1.054688 -1.300781 1.175781 -1.265625 1.28125 -1.203125 C 1.382812 -1.140625 1.457031 -1.050781 1.5 -0.9375 C 1.550781 -0.832031 1.570312 -0.707031 1.5625 -0.5625 C 1.550781 -0.425781 1.515625 -0.304688 1.453125 -0.203125 C 1.390625 -0.109375 1.300781 -0.0351562 1.1875 0.015625 C 1.070312 0.078125 0.945312 0.101562 0.8125 0.09375 Z M 0.328125 -0.65625 C 0.316406 -0.550781 0.332031 -0.457031 0.375 -0.375 C 0.414062 -0.289062 0.472656 -0.222656 0.546875 -0.171875 C 0.628906 -0.117188 0.722656 -0.0859375 0.828125 -0.078125 C 0.929688 -0.0664062 1.019531 -0.0820312 1.09375 -0.125 C 1.175781 -0.164062 1.242188 -0.222656 1.296875 -0.296875 C 1.347656 -0.378906 1.378906 -0.472656 1.390625 -0.578125 C 1.398438 -0.691406 1.382812 -0.785156 1.34375 -0.859375 C 1.300781 -0.941406 1.242188 -1.003906 1.171875 -1.046875 C 1.097656 -1.097656 1.007812 -1.128906 0.90625 -1.140625 C 0.800781 -1.148438 0.707031 -1.132812 0.625 -1.09375 C 0.539062 -1.0625 0.472656 -1.007812 0.421875 -0.9375 C 0.367188 -0.863281 0.335938 -0.769531 0.328125 -0.65625 Z M 0.328125 -0.65625 "/></g></g></g><g fill="#000000" fill-opacity="1"><g transform="translate(4.205082, 2.858007)"><g><path d="M 0.203125 0.046875 L 0.546875 -1.265625 L 0.6875 -1.21875 L 1.15625 0 L 1.421875 -1.03125 L 1.578125 -0.984375 L 1.234375 0.328125 L 1.078125 0.28125 L 0.609375 -0.9375 L 0.34375 0.09375 Z M 0.203125 0.046875 "/></g></g></g><g fill="#000000" fill-opacity="1"><g transform="translate(5.53425, 3.212252)"><g><path d="M 0.484375 0.21875 L 0.96875 -0.859375 L 0.546875 -1.046875 L 0.609375 -1.203125 L 1.609375 -0.765625 L 1.546875 -0.609375 L 1.125 -0.796875 L 0.640625 0.28125 Z M 0.484375 0.21875 "/></g></g></g><g fill="#000000" fill-opacity="1"><g transform="translate(6.571759, 3.670051)"><g><path d="M 0.171875 0.109375 L 0.890625 -1.046875 L 1.578125 -0.609375 L 1.5 -0.46875 L 0.953125 -0.8125 L 0.71875 -0.453125 L 1.234375 -0.140625 L 1.15625 0 L 0.640625 -0.3125 L 0.390625 0.078125 L 0.96875 0.4375 L 0.890625 0.5625 Z M 0.171875 0.109375 "/></g></g></g><g fill="#000000" fill-opacity="1"><g transform="translate(7.493191, 4.224752)"><g><path d="M 0.15625 0.140625 L 1.046875 -0.890625 L 1.15625 -0.796875 L 1.03125 0.515625 L 1.734375 -0.296875 L 1.859375 -0.1875 L 0.96875 0.84375 L 0.84375 0.734375 L 0.96875 -0.5625 L 0.265625 0.234375 Z M 0.15625 0.140625 "/></g></g></g><g fill="#000000" fill-opacity="1"><g transform="translate(8.528552, 5.130282)"><g><path d="M 0.34375 0.40625 L 1.25 -0.359375 L 0.953125 -0.71875 L 1.09375 -0.828125 L 1.78125 0.015625 L 1.640625 0.125 L 1.359375 -0.21875 L 0.453125 0.546875 Z M 0.34375 0.40625 "/></g></g></g><g fill="#000000" fill-opacity="1"><g transform="translate(9.256663, 6.02987)"><g/></g></g><g fill="#000000" fill-opacity="1"><g transform="translate(9.516731, 6.347244)"><g><path d="M 0.328125 0.71875 C 0.285156 0.632812 0.257812 0.546875 0.25 0.453125 C 0.238281 0.359375 0.25 0.269531 0.28125 0.1875 C 0.3125 0.101562 0.359375 0.03125 0.421875 -0.03125 C 0.484375 -0.101562 0.554688 -0.164062 0.640625 -0.21875 C 0.734375 -0.257812 0.828125 -0.285156 0.921875 -0.296875 C 1.015625 -0.304688 1.101562 -0.296875 1.1875 -0.265625 C 1.269531 -0.242188 1.34375 -0.203125 1.40625 -0.140625 C 1.476562 -0.078125 1.535156 -0.00390625 1.578125 0.078125 C 1.628906 0.171875 1.660156 0.265625 1.671875 0.359375 C 1.679688 0.460938 1.664062 0.5625 1.625 0.65625 C 1.59375 0.75 1.539062 0.832031 1.46875 0.90625 L 1.375 0.734375 C 1.457031 0.660156 1.5 0.570312 1.5 0.46875 C 1.507812 0.363281 1.488281 0.257812 1.4375 0.15625 C 1.394531 0.0703125 1.332031 0.0078125 1.25 -0.03125 C 1.175781 -0.0820312 1.09375 -0.109375 1 -0.109375 C 0.90625 -0.117188 0.8125 -0.101562 0.71875 -0.0625 C 0.625 -0.0078125 0.550781 0.0507812 0.5 0.125 C 0.457031 0.207031 0.429688 0.289062 0.421875 0.375 C 0.421875 0.46875 0.441406 0.554688 0.484375 0.640625 C 0.535156 0.742188 0.609375 0.820312 0.703125 0.875 C 0.804688 0.925781 0.914062 0.945312 1.03125 0.9375 L 1.109375 1.09375 C 1.003906 1.113281 0.898438 1.109375 0.796875 1.078125 C 0.691406 1.054688 0.597656 1.015625 0.515625 0.953125 C 0.441406 0.898438 0.378906 0.820312 0.328125 0.71875 Z M 0.328125 0.71875 "/></g></g></g><g fill="#000000" fill-opacity="1"><g transform="translate(10.184386, 7.664534)"><g><path d="M 0.0625 0.1875 L 1.359375 -0.21875 L 1.515625 0.28125 C 1.535156 0.375 1.535156 0.457031 1.515625 0.53125 C 1.503906 0.601562 1.472656 0.671875 1.421875 0.734375 C 1.378906 0.796875 1.3125 0.84375 1.21875 0.875 C 1.113281 0.90625 1.019531 0.898438 0.9375 0.859375 C 0.851562 0.828125 0.785156 0.769531 0.734375 0.6875 L 0.359375 1.15625 L 0.296875 0.953125 L 0.671875 0.5 L 0.578125 0.21875 L 0.109375 0.359375 Z M 0.734375 0.171875 L 0.828125 0.484375 C 0.859375 0.578125 0.90625 0.640625 0.96875 0.671875 C 1.03125 0.703125 1.097656 0.707031 1.171875 0.6875 C 1.253906 0.65625 1.3125 0.609375 1.34375 0.546875 C 1.375 0.492188 1.375 0.421875 1.34375 0.328125 L 1.25 0.015625 Z M 0.734375 0.171875 "/></g></g></g><g clip-path="url(#6b77770cd8)"><g fill="#000000" fill-opacity="1"><g transform="translate(10.547504, 8.839399)"><g><path d="M 0.03125 0.203125 L 1.375 0 L 1.5 0.796875 L 1.34375 0.8125 L 1.25 0.1875 L 0.8125 0.265625 L 0.890625 0.84375 L 0.75 0.859375 L 0.671875 0.28125 L 0.21875 0.34375 L 0.3125 1 L 0.15625 1.03125 Z M 0.03125 0.203125 "/></g></g></g></g><g clip-path="url(#177c41a9c5)"><g fill="#000000" fill-opacity="1"><g transform="translate(10.723081, 9.904002)"><g><path d="M 0 0.03125 L 1.359375 0.59375 L 1.359375 0.75 L 0 1.3125 L 0 1.125 L 0.3125 1 L 0.3125 0.34375 L 0 0.21875 Z M 0.46875 0.40625 L 0.46875 0.9375 L 1.125 0.671875 Z M 0.46875 0.40625 "/></g></g></g></g><g clip-path="url(#f77e643f96)"><g fill="#000000" fill-opacity="1"><g transform="translate(10.728467, 11.152586)"><g><path d="M -0.078125 0.53125 L 1.09375 0.703125 L 1.15625 0.234375 L 1.328125 0.265625 L 1.171875 1.34375 L 1 1.3125 L 1.0625 0.859375 L -0.109375 0.6875 Z M -0.078125 0.53125 "/></g></g></g></g><g fill="#000000" fill-opacity="1"><g transform="translate(10.542965, 12.29204)"><g><path d="M -0.046875 0.203125 L 1.265625 0.546875 L 1.21875 0.703125 L -0.09375 0.359375 Z M -0.046875 0.203125 "/></g></g></g><g fill="#000000" fill-opacity="1"><g transform="translate(10.457684, 12.775521)"><g><path d="M -0.34375 0.734375 C -0.289062 0.609375 -0.210938 0.507812 -0.109375 0.4375 C -0.015625 0.375 0.0859375 0.328125 0.203125 0.296875 C 0.328125 0.273438 0.453125 0.289062 0.578125 0.34375 C 0.710938 0.394531 0.816406 0.472656 0.890625 0.578125 C 0.960938 0.679688 1.003906 0.789062 1.015625 0.90625 C 1.035156 1.019531 1.019531 1.140625 0.96875 1.265625 C 0.925781 1.390625 0.851562 1.492188 0.75 1.578125 C 0.65625 1.660156 0.550781 1.707031 0.4375 1.71875 C 0.320312 1.726562 0.195312 1.707031 0.0625 1.65625 C -0.0625 1.601562 -0.160156 1.53125 -0.234375 1.4375 C -0.316406 1.351562 -0.363281 1.242188 -0.375 1.109375 C -0.394531 0.984375 -0.382812 0.859375 -0.34375 0.734375 Z M 0.515625 0.515625 C 0.421875 0.472656 0.328125 0.457031 0.234375 0.46875 C 0.148438 0.488281 0.0703125 0.523438 0 0.578125 C -0.0820312 0.628906 -0.144531 0.703125 -0.1875 0.796875 C -0.21875 0.890625 -0.222656 0.984375 -0.203125 1.078125 C -0.191406 1.171875 -0.15625 1.253906 -0.09375 1.328125 C -0.0390625 1.398438 0.03125 1.457031 0.125 1.5 C 0.226562 1.539062 0.320312 1.550781 0.40625 1.53125 C 0.5 1.519531 0.578125 1.484375 0.640625 1.421875 C 0.710938 1.367188 0.765625 1.296875 0.796875 1.203125 C 0.835938 1.109375 0.851562 1.015625 0.84375 0.921875 C 0.84375 0.835938 0.8125 0.757812 0.75 0.6875 C 0.695312 0.613281 0.617188 0.554688 0.515625 0.515625 Z M 0.515625 0.515625 "/></g></g></g><g fill="#000000" fill-opacity="1"><g transform="translate(9.889472, 14.182473)"><g><path d="M -0.109375 0.171875 L 1.03125 0.90625 L 0.953125 1.03125 L -0.34375 1.09375 L 0.546875 1.671875 L 0.453125 1.8125 L -0.6875 1.078125 L -0.59375 0.9375 L 0.703125 0.875 L -0.1875 0.296875 Z M -0.109375 0.171875 "/></g></g></g><g fill="#000000" fill-opacity="1"><g transform="translate(9.114388, 15.347915)"><g/></g></g><g fill="#000000" fill-opacity="1"><g transform="translate(8.873568, 15.686997)"><g><path d="M -0.421875 0.375 C -0.316406 0.269531 -0.210938 0.210938 -0.109375 0.203125 C -0.00390625 0.203125 0.0820312 0.242188 0.15625 0.328125 C 0.21875 0.378906 0.253906 0.441406 0.265625 0.515625 C 0.273438 0.597656 0.265625 0.6875 0.234375 0.78125 C 0.304688 0.769531 0.367188 0.773438 0.421875 0.796875 C 0.484375 0.828125 0.539062 0.867188 0.59375 0.921875 C 0.632812 0.960938 0.660156 1.007812 0.671875 1.0625 C 0.679688 1.113281 0.675781 1.171875 0.65625 1.234375 C 0.632812 1.296875 0.59375 1.351562 0.53125 1.40625 C 0.476562 1.457031 0.421875 1.492188 0.359375 1.515625 C 0.296875 1.546875 0.234375 1.550781 0.171875 1.53125 C 0.109375 1.519531 0.0546875 1.492188 0.015625 1.453125 C -0.0976562 1.328125 -0.109375 1.148438 -0.015625 0.921875 L -0.453125 0.921875 C -0.421875 1.003906 -0.363281 1.09375 -0.28125 1.1875 L -0.40625 1.3125 C -0.507812 1.175781 -0.570312 1.046875 -0.59375 0.921875 L -0.921875 0.90625 L -0.765625 0.75 L -0.609375 0.75 C -0.597656 0.613281 -0.535156 0.488281 -0.421875 0.375 Z M 0.046875 0.4375 C 0.00390625 0.382812 -0.046875 0.363281 -0.109375 0.375 C -0.171875 0.382812 -0.238281 0.421875 -0.3125 0.484375 C -0.394531 0.578125 -0.441406 0.671875 -0.453125 0.765625 L 0.078125 0.765625 C 0.128906 0.617188 0.117188 0.507812 0.046875 0.4375 Z M 0.484375 1.03125 C 0.460938 1 0.421875 0.972656 0.359375 0.953125 C 0.304688 0.941406 0.238281 0.941406 0.15625 0.953125 C 0.113281 1.054688 0.0859375 1.132812 0.078125 1.1875 C 0.0664062 1.25 0.0820312 1.300781 0.125 1.34375 C 0.15625 1.375 0.195312 1.382812 0.25 1.375 C 0.3125 1.375 0.367188 1.347656 0.421875 1.296875 C 0.472656 1.242188 0.503906 1.191406 0.515625 1.140625 C 0.523438 1.097656 0.515625 1.0625 0.484375 1.03125 Z M 0.484375 1.03125 "/></g></g></g><g fill="#000000" fill-opacity="1"><g transform="translate(7.927561, 16.585418)"><g/></g></g><g fill="#000000" fill-opacity="1"><g transform="translate(7.640733, 16.872269)"><g><path d="M -0.171875 0.109375 L 0.515625 1.28125 L 0.375 1.359375 L -0.484375 0.921875 L -0.53125 1.890625 L -0.671875 1.96875 L -1.359375 0.796875 L -1.21875 0.71875 L -0.703125 1.609375 L -0.640625 0.796875 L -0.515625 0.71875 L 0.1875 1.078125 L -0.328125 0.1875 Z M -0.171875 0.109375 "/></g></g></g><g fill="#000000" fill-opacity="1"><g transform="translate(6.217087, 17.715626)"><g><path d="M -0.78125 0.234375 C -0.65625 0.191406 -0.53125 0.179688 -0.40625 0.203125 C -0.289062 0.222656 -0.1875 0.269531 -0.09375 0.34375 C 0 0.425781 0.0664062 0.535156 0.109375 0.671875 C 0.148438 0.804688 0.160156 0.929688 0.140625 1.046875 C 0.117188 1.171875 0.0703125 1.273438 0 1.359375 C -0.0820312 1.453125 -0.1875 1.519531 -0.3125 1.5625 C -0.4375 1.601562 -0.5625 1.613281 -0.6875 1.59375 C -0.8125 1.582031 -0.921875 1.535156 -1.015625 1.453125 C -1.109375 1.367188 -1.175781 1.257812 -1.21875 1.125 C -1.257812 0.988281 -1.269531 0.863281 -1.25 0.75 C -1.226562 0.632812 -1.175781 0.53125 -1.09375 0.4375 C -1.007812 0.34375 -0.90625 0.273438 -0.78125 0.234375 Z M -0.046875 0.734375 C -0.078125 0.628906 -0.128906 0.546875 -0.203125 0.484375 C -0.273438 0.429688 -0.351562 0.394531 -0.4375 0.375 C -0.53125 0.363281 -0.625 0.375 -0.71875 0.40625 C -0.820312 0.4375 -0.898438 0.484375 -0.953125 0.546875 C -1.015625 0.617188 -1.050781 0.695312 -1.0625 0.78125 C -1.082031 0.875 -1.078125 0.972656 -1.046875 1.078125 C -1.015625 1.179688 -0.960938 1.257812 -0.890625 1.3125 C -0.828125 1.375 -0.75 1.410156 -0.65625 1.421875 C -0.570312 1.441406 -0.476562 1.4375 -0.375 1.40625 C -0.28125 1.375 -0.203125 1.320312 -0.140625 1.25 C -0.0859375 1.1875 -0.0507812 1.109375 -0.03125 1.015625 C -0.0078125 0.929688 -0.015625 0.835938 -0.046875 0.734375 Z M -0.046875 0.734375 "/></g></g></g><g fill="#000000" fill-opacity="1"><g transform="translate(4.782256, 18.209772)"><g><path d="M -0.203125 0.03125 L 0 1.375 L -0.46875 1.4375 C -0.59375 1.457031 -0.710938 1.445312 -0.828125 1.40625 C -0.941406 1.363281 -1.035156 1.296875 -1.109375 1.203125 C -1.179688 1.109375 -1.226562 1 -1.25 0.875 C -1.257812 0.75 -1.242188 0.628906 -1.203125 0.515625 C -1.160156 0.398438 -1.09375 0.304688 -1 0.234375 C -0.90625 0.160156 -0.796875 0.113281 -0.671875 0.09375 Z M -0.359375 0.203125 L -0.65625 0.25 C -0.75 0.269531 -0.828125 0.304688 -0.890625 0.359375 C -0.960938 0.421875 -1.015625 0.492188 -1.046875 0.578125 C -1.078125 0.660156 -1.085938 0.75 -1.078125 0.84375 C -1.054688 0.9375 -1.015625 1.019531 -0.953125 1.09375 C -0.898438 1.164062 -0.832031 1.21875 -0.75 1.25 C -0.664062 1.28125 -0.578125 1.285156 -0.484375 1.265625 L -0.203125 1.21875 Z M -0.359375 0.203125 "/></g></g></g><g fill="#000000" fill-opacity="1"><g transform="translate(3.41781, 18.406194)"><g><path d="M -0.203125 0 L -0.21875 1.359375 L -1.03125 1.34375 L -1.03125 1.1875 L -0.390625 1.203125 L -0.390625 0.765625 L -0.984375 0.75 L -0.96875 0.59375 L -0.375 0.609375 L -0.375 0.15625 L -1.046875 0.140625 L -1.046875 -0.015625 Z M -0.203125 0 "/></g></g></g><g fill="#000000" fill-opacity="1"><g transform="translate(2.330158, 18.396111)"><g><path d="M -0.203125 -0.03125 L -0.40625 1.3125 L -0.578125 1.296875 L -0.390625 0.109375 L -1.03125 0 L -1.015625 -0.15625 Z M -0.203125 -0.03125 "/></g></g></g></g></g></svg>